# AST/ASF file generated using VICON BodyLanguage
# -----------------------------------------------
:version 1.10
:name VICON
:units
  mass 1.0
  length 0.45
  angle deg
:documentation
   .ast/.asf automatically generated from VICON data using
   VICON BodyBuilder and BodyLanguage model FoxedUp or BRILLIANT.MOD
:root
   order TX TY TZ RX RY RZ
   axis XYZ
   position 0 0 0  
   orientation 0 0 0 
:bonedata
  begin
     id 1 
     name lhipjoint
     direction 0.584852 -0.759097 0.285867 
     length 2.43633 
     axis 0 0 0  XYZ
  end
  begin
     id 2 
     name lfemur
     direction 0.34202 -0.939693 0  
     length 7.14704  
     axis 0 0 20  XYZ
    dof rx ry rz
    limits (-160.0 20.0)
           (-70.0 70.0)
           (-60.0 70.0)
  end
  begin
     id 3 
     name ltibia
     direction 0.342022 -0.939692 0   
     length 7.68483   
     axis 0 0 20   XYZ
    dof rx
    limits (-10.0 170.0)
  end
  begin
     id 4 
     name lfoot
     direction 0.0999605 -0.274639 0.956337   
     length 2.40452   
     axis -90 7.62852e-016 20   XYZ
    dof rx rz
    limits (-45.0 90.0)
           (-70.0 20.0)
  end
  begin
     id 5 
     name ltoes
     direction 1.53468e-011 -4.21881e-011 1   
     length 1.19837   
     axis -90 7.62852e-016 20   XYZ
    dof rx
    limits (-90.0 20.0)
  end
  begin
     id 6 
     name rhipjoint
     direction -0.569886 -0.769002 0.289597   
     length 2.40495  
     axis 0 0 0  XYZ 
  end
  begin
     id 7 
     name rfemur
     direction -0.34202 -0.939693 0   
     length 7.45086   
     axis 0 0 -20   XYZ
    dof rx ry rz
    limits (-160.0 20.0)
           (-70.0 70.0)
           (-70.0 60.0)
  end
  begin
     id 8 
     name rtibia
     direction -0.34202 -0.939693 0   
     length 7.76831   
     axis 0 0 -20   XYZ
    dof rx
    limits (-10.0 170.0)
 end
 begin
     id 9 
     name rfoot
     direction -0.0798572 -0.219406 0.97236   
     length 2.35911  
     axis -90 -7.62852e-016 -20   XYZ
    dof rx rz
    limits (-45.0 90.0)
           (-20.0 70.0)
  end
  begin
     id 10 
     name rtoes
     direction -1.53469e-011 -4.21728e-011 1   
     length 1.18261   
     axis -90 -7.62852e-016 -20   XYZ
    dof rx
    limits (-90.0 20.0)
  end
  begin
     id 11 
     name lowerback
     direction 0.0242088 0.999437 0.0232389   
     length 2.1561   
     axis 0 0 0   XYZ
    dof rx ry rz
    limits (-20.0 45.0)
           (-30.0 30.0)
           (-30.0 30.0)
  end
  begin
     id 12 
     name upperback
     direction -0.0356893 0.999013 -0.0264323   
     length 2.14431   
     axis 0 0 0   XYZ
    dof rx ry rz
    limits (-20.0 45.0)
           (-30.0 30.0)
           (-30.0 30.0)
  end
  begin
     id 13 
     name thorax
     direction -0.0472163 0.998194 -0.0371284   
     length 2.16169   
     axis 0 0 0   XYZ
    dof rx ry rz
    limits (-20.0 45.0)
           (-30.0 30.0)
           (-30.0 30.0)
  end
  begin
     id 14 
     name lowerneck
     direction 0.00863244 0.999921 0.00911972   
     length 1.58651   
     axis 0 0 0   XYZ
    dof rx ry rz
    limits (-20.0 45.0)
           (-30.0 30.0)
           (-30.0 30.0)
  end
  begin
     id 15 
     name upperneck
     direction 0.149523 0.979068 -0.138086   
     length 1.57486   
     axis 0 0 0   XYZ
    dof rx ry rz
    limits (-20.0 45.0)
           (-30.0 30.0)
           (-30.0 30.0)
  end
  begin
     id 16
     name head
     direction 0.0445219 0.997708 -0.0509576  
     length 1.6019  
     axis 0 0 0   XYZ
    dof rx ry rz
    limits (-20.0 45.0)
           (-30.0 30.0)
           (-30.0 30.0)
  end
  begin
     id 17 
     name lclavicle
     direction 0.911271 0.381667 -0.154644  
     length 3.80848  
     axis 0 0 0   XYZ
    dof ry rz
    limits (-20.0 10.0)
           (0.0 20.0)
  end
  begin
     id 18 
     name lhumerus
     direction 1 -4.49003e-011 2.1308e-027   
     length 5.19069   
     axis 180 -30 -90   XYZ
    dof rx ry rz
    limits (-60.0 90.0)
           (-90.0 90.0)
           (-90.0 90.0)
  end
  begin
     id 19
     name lradius
     direction 1 -4.48914e-011 4.01554e-027   
     length 3.30016   
     axis 180 -30 -90   XYZ
    dof rx
    limits (-10.0 170.0)
  end
  begin
     id 20
     name lwrist
     direction 1 -4.49003e-011 1.1934e-026   
     length 1.65008   
     axis -8.46377e-015 90 90   XYZ
    dof ry
    limits (-180.0 0.0)
 end
  begin
     id 21 
     name lhand
     direction 1 -4.49034e-011 2.38659e-026   
     length 0.707698   
     axis -1.52313e-014 90 90   XYZ
    dof rx rz
    limits (-90.0 90.0)
           (-45.0 45.0)
  end
  begin
     id 22 
     name lfingers
     direction 1 -4.48691e-011 4.77775e-026   
     length 0.570564   
     axis -3.04623e-014 90 90   XYZ
    dof rx
    limits (0.0 90.0)
  end
  begin
     id 23
     name lthumb
     direction 0.707107 -6.34832e-011 0.707107   
     length 0.819219   
     axis -90 45 -1.62303e-014   XYZ
    dof rx rz
    limits (-45.0 45.0)
           (-45.0 45.0)
  end
  begin
     id 24 
     name rclavicle
     direction -0.815579 0.573708 -0.0754329   
     length 3.54371  
     axis 0 0 0   XYZ 
    dof ry rz
    limits (-10.0 20.0)
           (-20.0 0.0)
  end
  begin
     id 25 
     name rhumerus
     direction -1 -4.48956e-011 3.05351e-028  
     length 5.23924   
     axis 180 30 90   XYZ
    dof rx ry rz
    limits (-90.0 60.0)
           (-90.0 90.0)
           (-90.0 90.0)
  end
  begin
     id 26 
     name rradius
     direction -1 -4.49013e-011 3.53849e-027   
     length 3.32953   
     axis 180 30 90   XYZ
    dof rx
    limits (-10.0 170.0)
  end
  begin
     id 27 
     name rwrist
     direction -1 -4.48901e-011 1.19374e-026   
     length 1.66477   
     axis -8.46377e-015 -90 -90   XYZ
    dof ry
    limits (-180.0 0.0)
  end
  begin
     id 28
     name rhand
     direction -1 -4.48877e-011 2.38764e-026   
     length 0.607414   
     axis -1.52313e-014 -90 -90   XYZ
    dof rx rz
    limits (-90.0 90.0)
           (-45.0 45.0)
  end
  begin
     id 29
     name rfingers
     direction -1 -4.48882e-011 4.77521e-026   
     length 0.489712   
     axis -3.04623e-014 -90 -90   XYZ
    dof rx
    limits (0.0 90.0)
  end
  begin
     id 30
     name rthumb
     direction -0.707107 -6.34974e-011 0.707107   
     length 0.703132   
     axis -90 -45 1.62303e-014   XYZ
    dof rx rz
    limits (-45.0 45.0)
           (-45.0 45.0)
  end
:hierarchy
  begin
    root lhipjoint rhipjoint lowerback
    lhipjoint lfemur
    lfemur ltibia
    ltibia lfoot
    lfoot ltoes
    rhipjoint rfemur
    rfemur rtibia
    rtibia rfoot
    rfoot rtoes
    lowerback upperback
    upperback thorax
    thorax lowerneck lclavicle rclavicle
    lowerneck upperneck
    upperneck head
    lclavicle lhumerus
    lhumerus lradius
    lradius lwrist
    lwrist lhand lthumb
    lhand lfingers
    rclavicle rhumerus
    rhumerus rradius
    rradius rwrist
    rwrist rhand rthumb
    rhand rfingers
  end

#!OML:ASF E:\VariousWalksJay\Project 1\Capture day 1\Session 1\Actor2.ASF
:FULLY-SPECIFIED
:DEGREES
285
root 5.08187 16.5738 1.36304 -22.0926 1.57108 -11.1104
lowerback -9.11691 -4.64275 3.61761
upperback -2.40972 -6.40802 -1.92287
thorax 1.95955 -3.18489 -4.66587
lowerneck -14.1952 -4.21415 -2.88844
upperneck 27.6693 -8.06044 8.50517
head 11.9115 -2.95357 2.47615
rclavicle -5.24792e-014 -6.36111e-015
rhumerus 14.3964 9.62384 4.37015
rradius 114.093
rwrist -54.6982
rhand 52.9192 -27.6307
rfingers 7.12502
rthumb 71.7342 -16.8525
lclavicle -5.24792e-014 -6.36111e-015
lhumerus 25.9623 -23.593 21.5444
lradius 117.254
lwrist 50.8187
lhand 41.257 14.2109
lfingers 7.12502
lthumb 63.4286 23.8044
rfemur -74.436 -14.8941 23.2854
rtibia 118.079
rfoot -15.424 -1.57821
rtoes -23.3257
lfemur 40.0224 4.89333 -8.10758
ltibia 11.2617
lfoot -31.729 29.4085
ltoes -11.1011
286
root 5.07899 16.5647 1.41211 -22.416 1.92087 -11.3149
lowerback -9.07552 -4.71182 3.52037
upperback -2.49374 -6.4859 -1.97494
thorax 1.84602 -3.22817 -4.66318
lowerneck -14.3603 -4.25521 -2.95748
upperneck 27.5391 -8.10503 8.5683
head 11.904 -2.97094 2.49978
rclavicle 3.53837e-014 2.54444e-014
rhumerus 14.6429 7.79706 5.23485
rradius 114.007
rwrist -55.5561
rhand 53.2797 -27.7633
rfingers 7.12502
rthumb 71.9346 -16.0719
lclavicle 3.53837e-014 2.54444e-014
lhumerus 26.7411 -21.4607 21.4803
lradius 117.581
lwrist 50.9237
lhand 41.4217 14.2013
lfingers 7.12502
lthumb 63.5627 23.6031
rfemur -75.5709 -15.211 23.4435
rtibia 118.277
rfoot -15.6964 -1.36032
rtoes -23.3546
lfemur 40.7686 4.55149 -7.89232
ltibia 10.6006
lfoot -31.4281 29.4299
ltoes -11.3849
287
root 5.07625 16.5549 1.4605 -22.7209 2.24856 -11.5138
lowerback -9.02331 -4.77626 3.42409
upperback -2.56968 -6.55813 -2.01923
thorax 1.7365 -3.26825 -4.65174
lowerneck -14.5113 -4.29712 -3.02525
upperneck 27.4223 -8.15309 8.63284
head 11.8993 -2.98966 2.52362
rclavicle 0 1.19271e-014
rhumerus 14.8722 6.03065 5.97651
rradius 113.936
rwrist -56.4045
rhand 53.5823 -27.895
rfingers 7.12502
rthumb 72.099 -15.421
lclavicle 0 1.19271e-014
lhumerus 27.483 -19.403 21.4906
lradius 117.903
lwrist 50.9843
lhand 41.5305 14.1709
lfingers 7.12502
lthumb 63.6511 23.4449
rfemur -76.6341 -15.4687 23.6065
rtibia 118.383
rfoot -15.9426 -1.14607
rtoes -23.323
lfemur 41.4875 4.34401 -7.57825
ltibia 9.96998
lfoot -31.1027 29.3048
ltoes -11.6634
288
root 5.07373 16.5445 1.50826 -23.0047 2.55477 -11.7066
lowerback -8.96577 -4.83632 3.32996
upperback -2.63871 -6.62522 -2.05674
thorax 1.63249 -3.30536 -4.63378
lowerneck -14.6507 -4.33944 -3.09077
upperneck 27.3233 -8.2048 8.6988
head 11.8996 -3.00951 2.54753
rclavicle 5.08889e-014 2.22639e-014
rhumerus 15.0864 4.32583 6.59524
rradius 113.882
rwrist -57.2492
rhand 53.8392 -28.028
rfingers 7.12502
rthumb 72.2359 -14.8782
lclavicle 5.08889e-014 2.22639e-014
lhumerus 28.1932 -17.423 21.5632
lradius 118.228
lwrist 50.9979
lhand 41.5934 14.1176
lfingers 7.12502
lthumb 63.7021 23.3173
rfemur -77.6215 -15.6692 23.7717
rtibia 118.403
rfoot -16.1682 -0.944196
rtoes -23.2366
lfemur 42.1718 4.15791 -7.2618
ltibia 9.36478
lfoot -30.7888 29.1745
ltoes -11.9377
289
root 5.07148 16.5336 1.55545 -23.265 2.84128 -11.8928
lowerback -8.9083 -4.8925 3.23884
upperback -2.70192 -6.68793 -2.08859
thorax 1.53552 -3.33986 -4.61152
lowerneck -14.78 -4.38184 -3.15375
upperneck 27.2443 -8.26018 8.76663
head 11.906 -3.03033 2.57163
rclavicle 2.46493e-014 -3.18055e-015
rhumerus 15.2872 2.68391 7.09249
rradius 113.848
rwrist -58.0898
rhand 54.0638 -28.1628
rfingers 7.12502
rthumb 72.3534 -14.4133
lclavicle 2.46493e-014 -3.18055e-015
lhumerus 28.8763 -15.523 21.6875
lradius 118.559
lwrist 50.9654
lhand 41.623 14.0461
lfingers 7.12502
lthumb 63.7262 23.2107
rfemur -78.5299 -15.817 23.9369
rtibia 118.34
rfoot -16.3787 -0.765317
rtoes -23.0993
lfemur 42.8238 3.99262 -6.94396
ltibia 8.77735
lfoot -30.4836 29.0391
ltoes -12.2097
290
root 5.0696 16.5223 1.60217 -23.5002 3.11076 -12.0722
lowerback -8.85507 -4.94547 3.15089
upperback -2.76022 -6.74721 -2.11577
thorax 1.44668 -3.37224 -4.58654
lowerneck -14.9001 -4.42429 -3.21488
upperneck 27.1854 -8.31917 8.83651
head 11.9188 -3.05209 2.59611
rclavicle -6.36111e-015 -2.22639e-014
rhumerus 15.4761 1.10577 7.47182
rradius 113.836
rwrist -58.9215
rhand 54.2639 -28.2993
rfingers 7.12502
rthumb 72.4564 -14.0089
lclavicle -6.36111e-015 -2.22639e-014
lhumerus 29.5358 -13.7046 21.8544
lradius 118.898
lwrist 50.8898
lhand 41.6307 13.9582
lfingers 7.12502
lthumb 63.7324 23.1136
rfemur -79.3562 -15.919 24.0992
rtibia 118.202
rfoot -16.5781 -0.620603
rtoes -22.9243
lfemur 43.4469 3.84527 -6.62725
ltibia 8.19869
lfoot -30.1836 28.9003
ltoes -12.4818
291
root 5.06814 16.5105 1.64848 -23.7094 3.36592 -12.2448
lowerback -8.809 -4.99569 3.06656
upperback -2.81423 -6.80364 -2.13917
thorax 1.36668 -3.40278 -4.56036
lowerneck -15.0109 -4.46729 -3.27549
upperneck 27.1443 -8.38193 8.90866
head 11.9372 -3.07506 2.62123
rclavicle -9.93923e-014 1.51076e-014
rhumerus 15.6529 -0.408439 7.73872
rradius 113.852
rwrist -59.7347
rhand 54.4427 -28.4325
rfingers 7.12502
rthumb 72.5471 -13.6533
lclavicle -9.93923e-014 1.51076e-014
lhumerus 30.1747 -11.9687 22.057
lradius 119.243
lwrist 50.778
lhand 41.6273 13.857
lfingers 7.12502
lthumb 63.7296 23.0165
rfemur -80.0979 -15.9822 24.2568
rtibia 117.994
rfoot -16.7694 -0.519706
rtoes -22.7277
lfemur 44.0456 3.71598 -6.31062
ltibia 7.61921
lfoot -29.884 28.7559
ltoes -12.7564
292
root 5.06718 16.4984 1.69446 -23.8922 3.60931 -12.4106
lowerback -8.77197 -5.04342 2.98586
upperback -2.86462 -6.85753 -2.15944
thorax 1.29575 -3.43167 -4.53385
lowerneck -15.1108 -4.51177 -3.33855
upperneck 27.1168 -8.4489 8.9841
head 11.9594 -3.09977 2.64775
rclavicle -5.56597e-014 7.95139e-016
rhumerus 15.8173 -1.85931 7.90109
rradius 113.9
rwrist -60.519
rhand 54.6002 -28.5578
rfingers 7.12502
rthumb 72.6258 -13.3437
lclavicle -5.56597e-014 7.95139e-016
lhumerus 30.7947 -10.3157 22.2903
lradius 119.595
lwrist 50.6371
lhand 41.6194 13.7435
lfingers 7.12502
lthumb 63.7232 22.9123
rfemur -80.7533 -16.0137 24.4075
rtibia 117.723
rfoot -16.9528 -0.469339
rtoes -22.5318
lfemur 44.6243 3.60229 -5.99588
ltibia 7.0298
lfoot -29.5805 28.6074
ltoes -13.0356
293
root 5.06676 16.4859 1.74014 -24.0489 3.84304 -12.5692
lowerback -8.74484 -5.08862 2.90873
upperback -2.91171 -6.90879 -2.17708
thorax 1.23397 -3.45889 -4.50761
lowerneck -15.1986 -4.55878 -3.40697
upperneck 27.0982 -8.52036 9.06308
head 11.9836 -3.12678 2.67617
rclavicle 2.46493e-014 4.69132e-014
rhumerus 15.9675 -3.24825 7.9685
rradius 113.985
rwrist -61.2631
rhand 54.7343 -28.6689
rfingers 7.12502
rthumb 72.6921 -13.0814
lclavicle 2.46493e-014 4.69132e-014
lhumerus 31.3955 -8.74511 22.551
lradius 119.951
lwrist 50.4731
lhand 41.6069 13.6166
lfingers 7.12502
lthumb 63.7131 22.8003
rfemur -81.3212 -16.0199 24.5494
rtibia 117.395
rfoot -17.1264 -0.47222
rtoes -22.3602
lfemur 45.1873 3.50289 -5.68409
ltibia 6.42242
lfoot -29.2688 28.4555
ltoes -13.3207
294
root 5.0669 16.4733 1.78557 -24.1798 4.06891 -12.7196
lowerback -8.72746 -5.13108 2.83448
upperback -2.95593 -6.95699 -2.19278
thorax 1.18081 -3.48426 -4.4819
lowerneck -15.2732 -4.60911 -3.48312
upperneck 27.0842 -8.5963 9.14566
head 12.0079 -3.15647 2.70685
rclavicle 5.32743e-014 2.38542e-014
rhumerus 16.1017 -4.57659 7.95144
rradius 114.111
rwrist -61.9575
rhand 54.8428 -28.7617
rfingers 7.12502
rthumb 72.7451 -12.87
lclavicle 5.32743e-014 2.38542e-014
lhumerus 31.9759 -7.25601 22.8375
lradius 120.312
lwrist 50.2901
lhand 41.5835 13.4719
lfingers 7.12502
lthumb 63.6941 22.6833
rfemur -81.8015 -16.0064 24.6798
rtibia 117.016
rfoot -17.2853 -0.526498
rtoes -22.2437
lfemur 45.7383 3.41708 -5.37699
ltibia 5.7902
lfoot -28.9451 28.3011
ltoes -13.6115
295
root 5.06762 16.4604 1.83074 -24.2854 4.28773 -12.8609
lowerback -8.71934 -5.1702 2.76323
upperback -2.99736 -7.00132 -2.20719
thorax 1.1359 -3.50741 -4.45737
lowerneck -15.3347 -4.66309 -3.56822
upperneck 27.071 -8.67626 9.23132
head 12.0309 -3.18894 2.73981
rclavicle 5.08889e-014 3.4191e-014
rhumerus 16.2169 -5.84584 7.86075
rradius 114.283
rwrist -62.5949
rhand 54.9241 -28.8339
rfingers 7.12502
rthumb 72.7845 -12.7127
lclavicle 5.08889e-014 3.4191e-014
lhumerus 32.534 -5.84573 23.1493
lradius 120.678
lwrist 50.0927
lhand 41.541 13.3081
lfingers 7.12502
lthumb 63.6596 22.5696
rfemur -82.1943 -15.9769 24.797
rtibia 116.59
rfoot -17.4257 -0.625605
rtoes -22.1953
lfemur 46.2818 3.34485 -5.07574
ltibia 5.12579
lfoot -28.6054 28.1452
ltoes -13.9073
296
root 5.06892 16.4474 1.87568 -24.3662 4.50066 -12.9909
lowerback -8.71971 -5.2057 2.69361
upperback -3.03612 -7.04118 -2.22141
thorax 1.09875 -3.52807 -4.43431
lowerneck -15.3839 -4.72008 -3.66148
upperneck 27.0563 -8.75869 9.31851
head 12.0516 -3.22363 2.7745
rclavicle -2.38542e-015 -9.54166e-015
rhumerus 16.3113 -7.05706 7.7065
rradius 114.501
rwrist -63.1712
rhand 54.9809 -28.8871
rfingers 7.12502
rthumb 72.8119 -12.6054
lclavicle -2.38542e-015 -9.54166e-015
lhumerus 33.0665 -4.51062 23.4863
lradius 121.052
lwrist 49.8854
lhand 41.4688 13.1253
lfingers 7.12502
lthumb 63.601 22.4719
rfemur -82.5011 -15.9351 24.8977
rtibia 116.123
rfoot -17.5445 -0.758997
rtoes -22.2203
lfemur 46.8237 3.28651 -4.78312
ltibia 4.41871
lfoot -28.2434 27.9889
ltoes -14.2068
297
root 5.07078 16.4343 1.92039 -24.4231 4.70815 -13.1075
lowerback -8.72777 -5.23719 2.6251
upperback -3.07211 -7.07601 -2.23649
thorax 1.06899 -3.54599 -4.41337
lowerneck -15.4234 -4.77869 -3.76074
upperneck 27.0393 -8.84149 9.40554
head 12.0699 -3.2595 2.8102
rclavicle -4.45278e-014 8.74653e-015
rhumerus 16.3833 -8.21134 7.49771
rradius 114.767
rwrist -63.6853
rhand 55.0181 -28.9258
rfingers 7.12502
rthumb 72.8297 -12.5385
lclavicle -4.45278e-014 8.74653e-015
lhumerus 33.5706 -3.24622 23.8476
lradius 121.435
lwrist 49.6728
lhand 41.3581 12.9254
lfingers 7.12502
lthumb 63.511 22.4015
rfemur -82.724 -15.8834 24.9795
rtibia 115.619
rfoot -17.6407 -0.914028
rtoes -22.3118
lfemur 47.3757 3.24252 -4.501
ltibia 3.64833
lfoot -27.8479 27.834
ltoes -14.5084
298
root 5.07319 16.4212 1.96491 -24.4565 4.9105 -13.2087
lowerback -8.74278 -5.26447 2.557
upperback -3.10529 -7.1054 -2.25354
thorax 1.04621 -3.561 -4.39525
lowerneck -15.4558 -4.83696 -3.86219
upperneck 27.0201 -8.92204 9.48996
head 12.0858 -3.29519 2.8457
rclavicle -3.65764e-014 2.38542e-015
rhumerus 16.4319 -9.3094 7.24204
rradius 115.077
rwrist -64.1395
rhand 55.0413 -28.9559
rfingers 7.12502
rthumb 72.8408 -12.5025
lclavicle -3.65764e-014 2.38542e-015
lhumerus 34.0438 -2.04853 24.2316
lradius 121.828
lwrist 49.4611
lhand 41.2036 12.7123
lfingers 7.12502
lthumb 63.3851 22.3677
rfemur -82.8656 -15.824 25.0404
rtibia 115.082
rfoot -17.7154 -1.07707
rtoes -22.4552
lfemur 47.9655 3.21294 -4.23103
ltibia 2.76334
lfoot -27.3911 27.6844
ltoes -14.8107
299
root 5.07612 16.408 2.00932 -24.4676 5.10763 -13.2929
lowerback -8.76401 -5.28745 2.48919
upperback -3.13551 -7.12918 -2.27334
thorax 1.03008 -3.57303 -4.38059
lowerneck -15.4845 -4.89278 -3.96165
upperneck 26.9997 -8.99767 9.56932
head 12.0998 -3.32921 2.87974
rclavicle -7.15625e-014 -1.03368e-014
rhumerus 16.4577 -10.3521 6.94635
rradius 115.427
rwrist -64.5375
rhand 55.0574 -28.9832
rfingers 7.12502
rthumb 72.8485 -12.484
lclavicle -7.15625e-014 -1.03368e-014
lhumerus 34.484 -0.913734 24.6357
lradius 122.23
lwrist 49.2582
lhand 41.0068 12.4941
lfingers 7.12502
lthumb 63.2244 22.3752
rfemur -82.929 -15.758 25.0793
rtibia 114.515
rfoot -17.7722 -1.23498
rtoes -22.6267
lfemur 48.6929 3.19553 -3.9726
ltibia 1.57494
lfoot -26.7718 27.5538
ltoes -15.1128
